<svg width="670" height="386" viewBox="0 0 670 386" fill="none" xmlns="http://www.w3.org/2000/svg">
<path d="M1.74028 20.0527V6.10058H11.2711V8.83924H5.1125V11.0193H6.9519C8.08732 11.0193 9.07515 11.2032 9.91537 11.5711C10.7601 11.939 11.4119 12.4567 11.8706 13.1243C12.3338 13.792 12.5655 14.5777 12.5655 15.4815C12.5655 16.3853 12.3338 17.1801 11.8706 17.8659C11.4119 18.5517 10.7601 19.0876 9.91537 19.4737C9.07515 19.8597 8.08732 20.0527 6.9519 20.0527H1.74028ZM5.1125 17.3822H6.9519C7.4424 17.3822 7.8557 17.2982 8.19178 17.1301C8.53241 16.9576 8.78902 16.7259 8.9616 16.4353C9.13873 16.14 9.22729 15.813 9.22729 15.4542C9.22729 14.9365 9.032 14.505 8.64141 14.1599C8.25083 13.8101 7.68765 13.6353 6.9519 13.6353H5.1125V17.3822ZM17.1299 20.2299C16.4622 20.2299 15.8696 20.1186 15.3518 19.896C14.8386 19.669 14.4321 19.3283 14.1323 18.8742C13.8371 18.4154 13.6895 17.8409 13.6895 17.1506C13.6895 16.5692 13.7917 16.0787 13.9961 15.6791C14.2005 15.2794 14.4821 14.9547 14.8409 14.7049C15.1997 14.4551 15.6129 14.2666 16.0807 14.1394C16.5485 14.0077 17.0481 13.9191 17.5795 13.8737C18.1745 13.8192 18.6536 13.7625 19.017 13.7034C19.3803 13.6398 19.6437 13.5513 19.8072 13.4377C19.9753 13.3196 20.0593 13.1539 20.0593 12.9404V12.9063C20.0593 12.5566 19.9389 12.2864 19.6982 12.0956C19.4575 11.9049 19.1328 11.8095 18.724 11.8095C18.2835 11.8095 17.9292 11.9049 17.6613 12.0956C17.3933 12.2864 17.223 12.5498 17.1503 12.8859L14.0778 12.7769C14.1687 12.1411 14.4026 11.5733 14.7795 11.0738C15.161 10.5696 15.6833 10.1745 16.3464 9.88837C17.0141 9.5977 17.8157 9.45237 18.7513 9.45237C19.4189 9.45237 20.0343 9.53185 20.5975 9.69081C21.1607 9.84523 21.6512 10.0723 22.069 10.3721C22.4868 10.6673 22.8093 11.0306 23.0364 11.4621C23.268 11.8935 23.3838 12.3863 23.3838 12.9404V20.0527H20.25V18.5948H20.1683C19.9821 18.9491 19.7436 19.2489 19.453 19.4941C19.1668 19.7394 18.8285 19.9233 18.4379 20.0459C18.0518 20.1685 17.6158 20.2299 17.1299 20.2299ZM18.1586 18.0498C18.5174 18.0498 18.8398 17.9772 19.126 17.8318C19.4166 17.6865 19.6483 17.4867 19.8208 17.2323C19.9934 16.9735 20.0797 16.6737 20.0797 16.3331V15.3384C19.9844 15.3884 19.8685 15.4338 19.7323 15.4747C19.6006 15.5156 19.4552 15.5542 19.2963 15.5905C19.1373 15.6268 18.9738 15.6586 18.8058 15.6859C18.6377 15.7131 18.4765 15.7381 18.3221 15.7608C18.0087 15.8108 17.7407 15.888 17.5182 15.9924C17.3002 16.0969 17.1322 16.2332 17.0141 16.4012C16.9005 16.5647 16.8438 16.76 16.8438 16.9871C16.8438 17.3322 16.9664 17.5957 17.2116 17.7773C17.4614 17.959 17.7771 18.0498 18.1586 18.0498ZM24.9098 20.0527L24.8894 17.4844H25.2232C25.4503 17.4844 25.6479 17.4254 25.8159 17.3073C25.984 17.1892 26.1248 17.0007 26.2383 16.7418C26.3518 16.4784 26.4427 16.14 26.5108 15.7267C26.5789 15.3135 26.6221 14.8116 26.6402 14.2212L26.8106 9.58862H35.0946V20.0527H31.9404V12.1365H29.774L29.6105 15.1477C29.5696 16.0333 29.4538 16.7895 29.2631 17.4163C29.0769 18.0385 28.8225 18.5426 28.5001 18.9287C28.1821 19.3147 27.8052 19.5986 27.3692 19.7802C26.9332 19.9619 26.4404 20.0527 25.8909 20.0527H24.9098ZM40.0797 20.2299C39.4121 20.2299 38.8194 20.1186 38.3017 19.896C37.7884 19.669 37.382 19.3283 37.0822 18.8742C36.787 18.4154 36.6394 17.8409 36.6394 17.1506C36.6394 16.5692 36.7416 16.0787 36.946 15.6791C37.1503 15.2794 37.4319 14.9547 37.7907 14.7049C38.1495 14.4551 38.5628 14.2666 39.0306 14.1394C39.4984 14.0077 39.998 13.9191 40.5294 13.8737C41.1243 13.8192 41.6035 13.7625 41.9668 13.7034C42.3302 13.6398 42.5936 13.5513 42.7571 13.4377C42.9251 13.3196 43.0091 13.1539 43.0091 12.9404V12.9063C43.0091 12.5566 42.8888 12.2864 42.6481 12.0956C42.4074 11.9049 42.0826 11.8095 41.6739 11.8095C41.2333 11.8095 40.8791 11.9049 40.6111 12.0956C40.3432 12.2864 40.1728 12.5498 40.1002 12.8859L37.0277 12.7769C37.1185 12.1411 37.3524 11.5733 37.7294 11.0738C38.1109 10.5696 38.6332 10.1745 39.2963 9.88837C39.9639 9.5977 40.7655 9.45237 41.7011 9.45237C42.3688 9.45237 42.9842 9.53185 43.5473 9.69081C44.1105 9.84523 44.601 10.0723 45.0189 10.3721C45.4367 10.6673 45.7592 11.0306 45.9862 11.4621C46.2179 11.8935 46.3337 12.3863 46.3337 12.9404V20.0527H43.1999V18.5948H43.1181C42.9319 18.9491 42.6935 19.2489 42.4028 19.4941C42.1167 19.7394 41.7783 19.9233 41.3878 20.0459C41.0017 20.1685 40.5657 20.2299 40.0797 20.2299ZM41.1084 18.0498C41.4672 18.0498 41.7897 17.9772 42.0758 17.8318C42.3665 17.6865 42.5981 17.4867 42.7707 17.2323C42.9433 16.9735 43.0296 16.6737 43.0296 16.3331V15.3384C42.9342 15.3884 42.8184 15.4338 42.6821 15.4747C42.5504 15.5156 42.4051 15.5542 42.2461 15.5905C42.0872 15.6268 41.9237 15.6586 41.7556 15.6859C41.5876 15.7131 41.4264 15.7381 41.2719 15.7608C40.9586 15.8108 40.6906 15.888 40.4681 15.9924C40.2501 16.0969 40.082 16.2332 39.9639 16.4012C39.8504 16.5647 39.7936 16.76 39.7936 16.9871C39.7936 17.3322 39.9162 17.5957 40.1615 17.7773C40.4113 17.959 40.7269 18.0498 41.1084 18.0498ZM55.7487 13.5195V16.0606H50.3804V13.5195H55.7487ZM51.5249 9.58862V20.0527H48.3706V9.58862H51.5249ZM57.7584 9.58862V20.0527H54.6246V9.58862H57.7584ZM64.6646 20.2503C63.561 20.2503 62.614 20.0232 61.8238 19.569C61.0381 19.1149 60.434 18.4836 60.0116 17.6751C59.5893 16.8622 59.3781 15.922 59.3781 14.8547C59.3781 13.7829 59.5893 12.8428 60.0116 12.0343C60.4386 11.2214 61.0449 10.5878 61.8306 10.1336C62.6208 9.67945 63.5633 9.45237 64.6578 9.45237C65.6252 9.45237 66.4677 9.62722 67.1853 9.97694C67.9074 10.3266 68.4706 10.8217 68.8748 11.4621C69.2835 12.0979 69.4993 12.845 69.522 13.7034H66.4086C66.3451 13.1675 66.1634 12.7474 65.8636 12.4431C65.5684 12.1388 65.1824 11.9866 64.7055 11.9866C64.3195 11.9866 63.9811 12.0956 63.6904 12.3136C63.3998 12.5271 63.1727 12.845 63.0092 13.2674C62.8502 13.6852 62.7707 14.203 62.7707 14.8207C62.7707 15.4384 62.8502 15.9606 63.0092 16.3876C63.1727 16.8099 63.3998 17.1301 63.6904 17.3481C63.9811 17.5616 64.3195 17.6683 64.7055 17.6683C65.0143 17.6683 65.2868 17.6025 65.523 17.4708C65.7637 17.3391 65.9613 17.146 66.1157 16.8917C66.2701 16.6328 66.3678 16.3194 66.4086 15.9516H69.522C69.4902 16.8145 69.2745 17.5684 68.8748 18.2133C68.4797 18.8583 67.9233 19.3601 67.2057 19.7189C66.4927 20.0732 65.6456 20.2503 64.6646 20.2503ZM82.7265 13.5195V16.0606H77.3581V13.5195H82.7265ZM78.5027 9.58862V20.0527H75.3484V9.58862H78.5027ZM84.7362 9.58862V20.0527H81.6024V9.58862H84.7362ZM89.7076 20.2299C89.04 20.2299 88.4473 20.1186 87.9296 19.896C87.4163 19.669 87.0099 19.3283 86.7101 18.8742C86.4149 18.4154 86.2673 17.8409 86.2673 17.1506C86.2673 16.5692 86.3695 16.0787 86.5739 15.6791C86.7782 15.2794 87.0598 14.9547 87.4186 14.7049C87.7774 14.4551 88.1907 14.2666 88.6585 14.1394C89.1263 14.0077 89.6259 13.9191 90.1573 13.8737C90.7522 13.8192 91.2314 13.7625 91.5947 13.7034C91.9581 13.6398 92.2215 13.5513 92.385 13.4377C92.553 13.3196 92.6371 13.1539 92.6371 12.9404V12.9063C92.6371 12.5566 92.5167 12.2864 92.276 12.0956C92.0353 11.9049 91.7105 11.8095 91.3018 11.8095C90.8612 11.8095 90.507 11.9049 90.239 12.0956C89.9711 12.2864 89.8008 12.5498 89.7281 12.8859L86.6556 12.7769C86.7464 12.1411 86.9803 11.5733 87.3573 11.0738C87.7388 10.5696 88.2611 10.1745 88.9242 9.88837C89.5918 9.5977 90.3934 9.45237 91.329 9.45237C91.9967 9.45237 92.6121 9.53185 93.1752 9.69081C93.7384 9.84523 94.2289 10.0723 94.6468 10.3721C95.0646 10.6673 95.3871 11.0306 95.6141 11.4621C95.8458 11.8935 95.9616 12.3863 95.9616 12.9404V20.0527H92.8278V18.5948H92.7461C92.5598 18.9491 92.3214 19.2489 92.0307 19.4941C91.7446 19.7394 91.4062 19.9233 91.0157 20.0459C90.6296 20.1685 90.1936 20.2299 89.7076 20.2299ZM90.7363 18.0498C91.0951 18.0498 91.4176 17.9772 91.7037 17.8318C91.9944 17.6865 92.226 17.4867 92.3986 17.2323C92.5712 16.9735 92.6575 16.6737 92.6575 16.3331V15.3384C92.5621 15.3884 92.4463 15.4338 92.31 15.4747C92.1783 15.5156 92.033 15.5542 91.874 15.5905C91.7151 15.6268 91.5516 15.6586 91.3835 15.6859C91.2155 15.7131 91.0543 15.7381 90.8998 15.7608C90.5865 15.8108 90.3185 15.888 90.096 15.9924C89.878 16.0969 89.7099 16.2332 89.5918 16.4012C89.4783 16.5647 89.4215 16.76 89.4215 16.9871C89.4215 17.3322 89.5441 17.5957 89.7894 17.7773C90.0392 17.959 90.3548 18.0498 90.7363 18.0498ZM102.12 20.0527V9.58862H105.452V13.4854H106.187L108.728 9.58862H112.584L109.062 14.8275L112.618 20.0527H108.715L106.419 16.5783H105.452V20.0527H102.12ZM118.114 20.2503C117.015 20.2503 116.071 20.0255 115.28 19.5759C114.495 19.1217 113.888 18.4904 113.461 17.682C113.039 16.869 112.828 15.9266 112.828 14.8547C112.828 13.7784 113.039 12.8359 113.461 12.0275C113.888 11.2146 114.495 10.5833 115.28 10.1336C116.071 9.67945 117.015 9.45237 118.114 9.45237C119.213 9.45237 120.156 9.67945 120.942 10.1336C121.732 10.5833 122.338 11.2146 122.761 12.0275C123.187 12.8359 123.401 13.7784 123.401 14.8547C123.401 15.9266 123.187 16.869 122.761 17.682C122.338 18.4904 121.732 19.1217 120.942 19.5759C120.156 20.0255 119.213 20.2503 118.114 20.2503ZM118.135 17.7365C118.534 17.7365 118.873 17.6138 119.15 17.3686C119.427 17.1233 119.638 16.7827 119.783 16.3467C119.933 15.9107 120.008 15.4066 120.008 14.8343C120.008 14.253 119.933 13.7443 119.783 13.3083C119.638 12.8723 119.427 12.5317 119.15 12.2864C118.873 12.0411 118.534 11.9185 118.135 11.9185C117.722 11.9185 117.372 12.0411 117.086 12.2864C116.804 12.5317 116.588 12.8723 116.438 13.3083C116.293 13.7443 116.22 14.253 116.22 14.8343C116.22 15.4066 116.293 15.9107 116.438 16.3467C116.588 16.7827 116.804 17.1233 117.086 17.3686C117.372 17.6138 117.722 17.7365 118.135 17.7365ZM132.486 13.5195V16.0606H127.117V13.5195H132.486ZM128.262 9.58862V20.0527H125.107V9.58862H128.262ZM134.495 9.58862V20.0527H131.361V9.58862H134.495ZM141.408 20.2503C140.314 20.2503 139.369 20.0346 138.574 19.6031C137.784 19.1671 137.175 18.5472 136.748 17.7433C136.326 16.9348 136.115 15.9743 136.115 14.8616C136.115 13.7806 136.328 12.8359 136.755 12.0275C137.182 11.2146 137.784 10.5833 138.561 10.1336C139.337 9.67945 140.252 9.45237 141.306 9.45237C142.051 9.45237 142.732 9.56818 143.35 9.79981C143.968 10.0314 144.501 10.3743 144.951 10.8285C145.4 11.2827 145.75 11.8436 146 12.5112C146.25 13.1743 146.375 13.935 146.375 14.7934V15.6246H137.28V13.6898H143.275C143.27 13.3355 143.186 13.0199 143.023 12.7428C142.859 12.4658 142.635 12.2501 142.348 12.0956C142.067 11.9367 141.742 11.8572 141.374 11.8572C141.002 11.8572 140.668 11.9412 140.373 12.1093C140.078 12.2728 139.844 12.4976 139.671 12.7837C139.498 13.0653 139.408 13.3855 139.399 13.7443V15.7131C139.399 16.14 139.483 16.5147 139.651 16.8372C139.819 17.1551 140.057 17.4026 140.366 17.5798C140.675 17.7569 141.043 17.8455 141.47 17.8455C141.765 17.8455 142.033 17.8046 142.273 17.7228C142.514 17.6411 142.721 17.5207 142.893 17.3618C143.066 17.2028 143.195 17.0075 143.282 16.7759L146.341 16.8644C146.213 17.5502 145.934 18.1475 145.503 18.6562C145.076 19.1603 144.515 19.5531 143.82 19.8347C143.125 20.1118 142.321 20.2503 141.408 20.2503ZM157.525 9.58862V17.8795H159.262V23.4113H156.04V20.0527H148.076V9.58862H151.23V17.5048H154.419V9.58862H157.525ZM171.273 16.4966L173.834 9.58862H176.273L172.342 20.0527H170.203L166.375 9.58862H168.807L171.273 16.4966ZM168.091 9.58862V20.0527H164.937V9.58862H168.091ZM174.645 20.0527V9.58862H177.758V20.0527H174.645ZM184.666 20.2503C183.572 20.2503 182.627 20.0346 181.832 19.6031C181.042 19.1671 180.434 18.5472 180.007 17.7433C179.584 16.9348 179.373 15.9743 179.373 14.8616C179.373 13.7806 179.587 12.8359 180.013 12.0275C180.44 11.2146 181.042 10.5833 181.819 10.1336C182.595 9.67945 183.511 9.45237 184.564 9.45237C185.309 9.45237 185.99 9.56818 186.608 9.79981C187.226 10.0314 187.759 10.3743 188.209 10.8285C188.659 11.2827 189.008 11.8436 189.258 12.5112C189.508 13.1743 189.633 13.935 189.633 14.7934V15.6246H180.538V13.6898H186.533C186.529 13.3355 186.444 13.0199 186.281 12.7428C186.117 12.4658 185.893 12.2501 185.607 12.0956C185.325 11.9367 185 11.8572 184.632 11.8572C184.26 11.8572 183.926 11.9412 183.631 12.1093C183.336 12.2728 183.102 12.4976 182.929 12.7837C182.757 13.0653 182.666 13.3855 182.657 13.7443V15.7131C182.657 16.14 182.741 16.5147 182.909 16.8372C183.077 17.1551 183.315 17.4026 183.624 17.5798C183.933 17.7569 184.301 17.8455 184.728 17.8455C185.023 17.8455 185.291 17.8046 185.532 17.7228C185.772 17.6411 185.979 17.5207 186.152 17.3618C186.324 17.2028 186.454 17.0075 186.54 16.7759L189.599 16.8644C189.472 17.5502 189.192 18.1475 188.761 18.6562C188.334 19.1603 187.773 19.5531 187.078 19.8347C186.383 20.1118 185.579 20.2503 184.666 20.2503ZM196.219 20.2503C195.115 20.2503 194.168 20.0232 193.378 19.569C192.592 19.1149 191.988 18.4836 191.566 17.6751C191.143 16.8622 190.932 15.922 190.932 14.8547C190.932 13.7829 191.143 12.8428 191.566 12.0343C191.993 11.2214 192.599 10.5878 193.385 10.1336C194.175 9.67945 195.117 9.45237 196.212 9.45237C197.179 9.45237 198.022 9.62722 198.739 9.97694C199.462 10.3266 200.025 10.8217 200.429 11.4621C200.838 12.0979 201.053 12.845 201.076 13.7034H197.963C197.899 13.1675 197.718 12.7474 197.418 12.4431C197.123 12.1388 196.737 11.9866 196.26 11.9866C195.874 11.9866 195.535 12.0956 195.245 12.3136C194.954 12.5271 194.727 12.845 194.563 13.2674C194.404 13.6852 194.325 14.203 194.325 14.8207C194.325 15.4384 194.404 15.9606 194.563 16.3876C194.727 16.8099 194.954 17.1301 195.245 17.3481C195.535 17.5616 195.874 17.6683 196.26 17.6683C196.569 17.6683 196.841 17.6025 197.077 17.4708C197.318 17.3391 197.515 17.146 197.67 16.8917C197.824 16.6328 197.922 16.3194 197.963 15.9516H201.076C201.044 16.8145 200.829 17.5684 200.429 18.2133C200.034 18.8583 199.478 19.3601 198.76 19.7189C198.047 20.0732 197.2 20.2503 196.219 20.2503ZM208.858 20.0527V12.1297H207.168C206.664 12.1297 206.287 12.2455 206.037 12.4772C205.788 12.7088 205.667 12.9631 205.676 13.2402C205.667 13.5263 205.79 13.7784 206.044 13.9964C206.299 14.2144 206.682 14.3234 207.196 14.3234H210.009V16.4353H207.196C206.237 16.4353 205.406 16.2967 204.702 16.0197C204.003 15.7381 203.462 15.3498 203.081 14.8547C202.704 14.3552 202.518 13.7806 202.522 13.1312C202.518 12.4363 202.704 11.8231 203.081 11.2918C203.458 10.7558 203.994 10.338 204.689 10.0382C205.388 9.7385 206.215 9.58862 207.168 9.58862H211.958V20.0527H208.858ZM202.318 20.0527L205.2 14.5209H208.32L205.438 20.0527H202.318ZM223.433 9.58862V17.8795H225.171V23.4113H221.948V20.0527H213.984V9.58862H217.139V17.5048H220.327V9.58862H223.433ZM229.674 20.2299C229.006 20.2299 228.413 20.1186 227.896 19.896C227.382 19.669 226.976 19.3283 226.676 18.8742C226.381 18.4154 226.233 17.8409 226.233 17.1506C226.233 16.5692 226.336 16.0787 226.54 15.6791C226.744 15.2794 227.026 14.9547 227.385 14.7049C227.743 14.4551 228.157 14.2666 228.625 14.1394C229.092 14.0077 229.592 13.9191 230.123 13.8737C230.718 13.8192 231.197 13.7625 231.561 13.7034C231.924 13.6398 232.188 13.5513 232.351 13.4377C232.519 13.3196 232.603 13.1539 232.603 12.9404V12.9063C232.603 12.5566 232.483 12.2864 232.242 12.0956C232.001 11.9049 231.677 11.8095 231.268 11.8095C230.827 11.8095 230.473 11.9049 230.205 12.0956C229.937 12.2864 229.767 12.5498 229.694 12.8859L226.622 12.7769C226.712 12.1411 226.946 11.5733 227.323 11.0738C227.705 10.5696 228.227 10.1745 228.89 9.88837C229.558 9.5977 230.359 9.45237 231.295 9.45237C231.963 9.45237 232.578 9.53185 233.141 9.69081C233.704 9.84523 234.195 10.0723 234.613 10.3721C235.031 10.6673 235.353 11.0306 235.58 11.4621C235.812 11.8935 235.928 12.3863 235.928 12.9404V20.0527H232.794V18.5948H232.712C232.526 18.9491 232.287 19.2489 231.997 19.4941C231.711 19.7394 231.372 19.9233 230.982 20.0459C230.596 20.1685 230.16 20.2299 229.674 20.2299ZM230.702 18.0498C231.061 18.0498 231.384 17.9772 231.67 17.8318C231.96 17.6865 232.192 17.4867 232.365 17.2323C232.537 16.9735 232.624 16.6737 232.624 16.3331V15.3384C232.528 15.3884 232.412 15.4338 232.276 15.4747C232.144 15.5156 231.999 15.5542 231.84 15.5905C231.681 15.6268 231.518 15.6586 231.35 15.6859C231.182 15.7131 231.02 15.7381 230.866 15.7608C230.553 15.8108 230.285 15.888 230.062 15.9924C229.844 16.0969 229.676 16.2332 229.558 16.4012C229.444 16.5647 229.388 16.76 229.388 16.9871C229.388 17.3322 229.51 17.5957 229.755 17.7773C230.005 17.959 230.321 18.0498 230.702 18.0498Z" fill="#4E5D7C"/>
<path d="M49.7108 231.329H1059.01V232.395H49.7108V231.329Z" fill="#4E5D7C" fill-opacity="0.32"/>
<path d="M49.7108 179.105H1059.01V180.171H49.7108V179.105Z" fill="#4E5D7C" fill-opacity="0.08"/>
<path d="M49.7108 335.776H1059.01V336.842H49.7108V335.776Z" fill="#4E5D7C" fill-opacity="0.08"/>
<path d="M49.7108 126.882H1059.01V127.947H49.7108V126.882Z" fill="#4E5D7C" fill-opacity="0.08"/>
<path d="M49.7108 283.553H1059.01V284.619H49.7108V283.553Z" fill="#4E5D7C" fill-opacity="0.08"/>
<path d="M99.8632 381.685H98.3379V372.912H96.4289C95.9303 372.912 95.5252 372.987 95.2136 373.138C94.902 373.286 94.674 373.499 94.5297 373.778C94.3853 374.057 94.3132 374.386 94.3132 374.767C94.3132 375.144 94.3853 375.467 94.5297 375.736C94.674 376.005 94.9003 376.21 95.2087 376.351C95.517 376.492 95.9188 376.563 96.4141 376.563H98.9972V377.871H96.2714C95.494 377.871 94.8462 377.742 94.3279 377.483C93.813 377.224 93.4259 376.861 93.1668 376.395C92.9109 375.926 92.783 375.383 92.783 374.767C92.783 374.147 92.9109 373.601 93.1668 373.128C93.4226 372.653 93.808 372.28 94.323 372.011C94.8413 371.743 95.4891 371.608 96.2665 371.608H99.8632V381.685ZM94.8888 377.138H96.5715L94.1262 381.685H92.3992L94.8888 377.138ZM107.086 377.271V378.545H102.992V377.271H107.086ZM103.406 374.127V381.685H101.964V374.127H103.406ZM108.114 374.127V381.685H106.678V374.127H108.114ZM110.082 381.685V374.127H113.217C114.069 374.127 114.745 374.309 115.244 374.673C115.742 375.034 115.992 375.524 115.992 376.144C115.992 376.587 115.851 376.938 115.568 377.197C115.286 377.456 114.912 377.63 114.447 377.719C114.784 377.758 115.094 377.86 115.377 378.024C115.659 378.185 115.885 378.401 116.056 378.673C116.229 378.946 116.316 379.27 116.316 379.648C116.316 380.048 116.213 380.402 116.006 380.71C115.8 381.015 115.5 381.255 115.106 381.429C114.716 381.599 114.245 381.685 113.694 381.685H110.082ZM111.465 380.455H113.694C114.058 380.455 114.343 380.368 114.55 380.194C114.757 380.02 114.86 379.784 114.86 379.485C114.86 379.134 114.757 378.859 114.55 378.659C114.343 378.455 114.058 378.354 113.694 378.354H111.465V380.455ZM111.465 377.276H113.231C113.507 377.276 113.743 377.237 113.94 377.158C114.14 377.079 114.292 376.968 114.397 376.823C114.506 376.676 114.56 376.502 114.56 376.302C114.56 376.01 114.44 375.782 114.201 375.618C113.961 375.454 113.633 375.372 113.217 375.372H111.465V377.276Z" fill="#4E5D7C" fill-opacity="0.5"/>
<path d="M82.7502 129.014C82.7502 124.305 86.5676 120.487 91.2766 120.487H116.856C121.564 120.487 125.382 124.305 125.382 129.014V231.329H82.7502V129.014Z" fill="#27AE60"/>
<path d="M36.126 235.838C35.3487 235.835 34.6844 235.63 34.1334 235.223C33.5823 234.817 33.1608 234.225 32.8689 233.447C32.5769 232.67 32.431 231.733 32.431 230.638C32.431 229.546 32.5769 228.612 32.8689 227.838C33.1641 227.064 33.5872 226.474 34.1383 226.067C34.6926 225.66 35.3552 225.457 36.126 225.457C36.8969 225.457 37.5578 225.662 38.1089 226.072C38.6599 226.479 39.0814 227.069 39.3734 227.843C39.6686 228.614 39.8162 229.546 39.8162 230.638C39.8162 231.737 39.6702 232.675 39.3783 233.452C39.0864 234.226 38.6649 234.818 38.1138 235.228C37.5627 235.635 36.9002 235.838 36.126 235.838ZM36.126 234.525C36.8083 234.525 37.3413 234.192 37.7251 233.526C38.1122 232.86 38.3057 231.897 38.3057 230.638C38.3057 229.801 38.2171 229.094 38.04 228.517C37.8661 227.937 37.6152 227.497 37.2872 227.199C36.9625 226.897 36.5754 226.746 36.126 226.746C35.4471 226.746 34.914 227.08 34.527 227.75C34.1399 228.419 33.9448 229.381 33.9415 230.638C33.9415 231.477 34.0284 232.188 34.2022 232.768C34.3794 233.346 34.6303 233.783 34.955 234.082C35.2798 234.377 35.6701 234.525 36.126 234.525Z" fill="#4E5D7C" fill-opacity="0.5"/>
<path d="M19.3558 182.519C18.7391 182.519 18.1848 182.401 17.6928 182.165C17.204 181.926 16.8137 181.598 16.5218 181.181C16.2298 180.764 16.074 180.289 16.0543 179.754H17.5304C17.5665 180.187 17.7584 180.543 18.1061 180.822C18.4537 181.101 18.8703 181.24 19.3558 181.24C19.7428 181.24 20.0856 181.152 20.3841 180.974C20.6859 180.794 20.922 180.546 21.0926 180.231C21.2665 179.917 21.3534 179.557 21.3534 179.154C21.3534 178.744 21.2648 178.378 21.0877 178.057C20.9106 177.735 20.6662 177.483 20.3546 177.299C20.0463 177.115 19.692 177.022 19.2918 177.019C18.9868 177.019 18.6801 177.071 18.3717 177.176C18.0634 177.281 17.8141 177.419 17.6239 177.589L16.2315 177.383L16.7973 172.305H22.3374V173.609H18.0618L17.742 176.428H17.801C17.9978 176.238 18.2586 176.079 18.5833 175.951C18.9113 175.823 19.2623 175.759 19.6362 175.759C20.2496 175.759 20.7958 175.905 21.2747 176.197C21.7568 176.489 22.1357 176.887 22.4112 177.393C22.69 177.894 22.8278 178.472 22.8245 179.124C22.8278 179.777 22.6802 180.359 22.3817 180.871C22.0865 181.383 21.6765 181.786 21.1517 182.081C20.6301 182.373 20.0315 182.519 19.3558 182.519ZM28.1297 182.549C27.3523 182.546 26.6881 182.341 26.137 181.934C25.586 181.527 25.1645 180.935 24.8725 180.158C24.5806 179.38 24.4347 178.444 24.4347 177.348C24.4347 176.256 24.5806 175.323 24.8725 174.549C25.1678 173.775 25.5909 173.184 26.142 172.777C26.6963 172.371 27.3589 172.167 28.1297 172.167C28.9005 172.167 29.5615 172.372 30.1126 172.782C30.6636 173.189 31.0851 173.779 31.377 174.554C31.6723 175.324 31.8199 176.256 31.8199 177.348C31.8199 178.447 31.6739 179.385 31.382 180.163C31.09 180.937 30.6685 181.529 30.1175 181.939C29.5664 182.346 28.9038 182.549 28.1297 182.549ZM28.1297 181.235C28.812 181.235 29.345 180.902 29.7288 180.236C30.1158 179.571 30.3094 178.608 30.3094 177.348C30.3094 176.512 30.2208 175.805 30.0437 175.228C29.8698 174.647 29.6189 174.208 29.2909 173.909C28.9662 173.607 28.5791 173.456 28.1297 173.456C27.4507 173.456 26.9177 173.791 26.5307 174.46C26.1436 175.129 25.9484 176.092 25.9452 177.348C25.9452 178.188 26.0321 178.898 26.2059 179.479C26.383 180.056 26.634 180.494 26.9587 180.792C27.2834 181.088 27.6738 181.235 28.1297 181.235ZM37.0734 182.549C36.296 182.546 35.6318 182.341 35.0807 181.934C34.5297 181.527 34.1082 180.935 33.8162 180.158C33.5243 179.38 33.3783 178.444 33.3783 177.348C33.3783 176.256 33.5243 175.323 33.8162 174.549C34.1114 173.775 34.5346 173.184 35.0856 172.777C35.64 172.371 36.3026 172.167 37.0734 172.167C37.8442 172.167 38.5052 172.372 39.0562 172.782C39.6073 173.189 40.0288 173.779 40.3207 174.554C40.6159 175.324 40.7635 176.256 40.7635 177.348C40.7635 178.447 40.6176 179.385 40.3256 180.163C40.0337 180.937 39.6122 181.529 39.0612 181.939C38.5101 182.346 37.8475 182.549 37.0734 182.549ZM37.0734 181.235C37.7557 181.235 38.2887 180.902 38.6725 180.236C39.0595 179.571 39.253 178.608 39.253 177.348C39.253 176.512 39.1645 175.805 38.9874 175.228C38.8135 174.647 38.5626 174.208 38.2346 173.909C37.9098 173.607 37.5228 173.456 37.0734 173.456C36.3944 173.456 35.8614 173.791 35.4743 174.46C35.0873 175.129 34.8921 176.092 34.8888 177.348C34.8888 178.188 34.9758 178.898 35.1496 179.479C35.3267 180.056 35.5777 180.494 35.9024 180.792C36.2271 181.088 36.6175 181.235 37.0734 181.235Z" fill="#4E5D7C" fill-opacity="0.5"/>
<path d="M13.694 283.283V284.562H9.22647V283.283H13.694ZM18.9611 289.098C18.3444 289.098 17.7901 288.98 17.298 288.744C16.8093 288.505 16.419 288.176 16.127 287.76C15.8351 287.343 15.6793 286.868 15.6596 286.333H17.1357C17.1718 286.766 17.3636 287.122 17.7113 287.401C18.059 287.68 18.4756 287.819 18.9611 287.819C19.3481 287.819 19.6909 287.73 19.9894 287.553C20.2912 287.373 20.5273 287.125 20.6979 286.81C20.8717 286.495 20.9587 286.136 20.9587 285.733C20.9587 285.323 20.8701 284.957 20.693 284.636C20.5159 284.314 20.2715 284.062 19.9599 283.878C19.6515 283.694 19.2973 283.601 18.8971 283.597C18.5921 283.597 18.2854 283.65 17.977 283.755C17.6687 283.86 17.4194 283.998 17.2292 284.168L15.8367 283.962L16.4026 278.884H21.9427V280.188H17.6671L17.3472 283.007H17.4063C17.6031 282.817 17.8639 282.658 18.1886 282.53C18.5166 282.402 18.8676 282.338 19.2415 282.338C19.8549 282.338 20.401 282.484 20.8799 282.776C21.3621 283.068 21.741 283.466 22.0165 283.971C22.2953 284.473 22.4331 285.051 22.4298 285.703C22.4331 286.356 22.2855 286.938 21.987 287.45C21.6918 287.962 21.2818 288.365 20.7569 288.66C20.2354 288.952 19.6368 289.098 18.9611 289.098ZM27.735 289.128C26.9576 289.124 26.2934 288.919 25.7423 288.513C25.1913 288.106 24.7698 287.514 24.4778 286.737C24.1859 285.959 24.0399 285.023 24.0399 283.927C24.0399 282.835 24.1859 281.902 24.4778 281.128C24.773 280.353 25.1962 279.763 25.7472 279.356C26.3016 278.949 26.9642 278.746 27.735 278.746C28.5058 278.746 29.1668 278.951 29.7178 279.361C30.2689 279.768 30.6904 280.358 30.9823 281.132C31.2775 281.903 31.4251 282.835 31.4251 283.927C31.4251 285.026 31.2792 285.964 30.9873 286.741C30.6953 287.516 30.2738 288.108 29.7228 288.518C29.1717 288.924 28.5091 289.128 27.735 289.128ZM27.735 287.814C28.4173 287.814 28.9503 287.481 29.3341 286.815C29.7211 286.149 29.9146 285.187 29.9146 283.927C29.9146 283.091 29.8261 282.384 29.649 281.806C29.4751 281.226 29.2242 280.786 28.8962 280.488C28.5714 280.186 28.1844 280.035 27.735 280.035C27.056 280.035 26.523 280.37 26.1359 281.039C25.7489 281.708 25.5537 282.671 25.5504 283.927C25.5504 284.767 25.6374 285.477 25.8112 286.058C25.9883 286.635 26.2393 287.073 26.564 287.371C26.8887 287.666 27.2791 287.814 27.735 287.814ZM36.6787 289.128C35.9013 289.124 35.2371 288.919 34.686 288.513C34.1349 288.106 33.7134 287.514 33.4215 286.737C33.1296 285.959 32.9836 285.023 32.9836 283.927C32.9836 282.835 33.1296 281.902 33.4215 281.128C33.7167 280.353 34.1399 279.763 34.6909 279.356C35.2453 278.949 35.9079 278.746 36.6787 278.746C37.4495 278.746 38.1105 278.951 38.6615 279.361C39.2126 279.768 39.6341 280.358 39.926 281.132C40.2212 281.903 40.3688 282.835 40.3688 283.927C40.3688 285.026 40.2229 285.964 39.9309 286.741C39.639 287.516 39.2175 288.108 38.6664 288.518C38.1154 288.924 37.4528 289.128 36.6787 289.128ZM36.6787 287.814C37.361 287.814 37.894 287.481 38.2777 286.815C38.6648 286.149 38.8583 285.187 38.8583 283.927C38.8583 283.091 38.7698 282.384 38.5926 281.806C38.4188 281.226 38.1679 280.786 37.8399 280.488C37.5151 280.186 37.1281 280.035 36.6787 280.035C35.9997 280.035 35.4667 280.37 35.0796 281.039C34.6926 281.708 34.4974 282.671 34.4941 283.927C34.4941 284.767 34.581 285.477 34.7549 286.058C34.932 286.635 35.1829 287.073 35.5077 287.371C35.8324 287.666 36.2227 287.814 36.6787 287.814Z" fill="#4E5D7C" fill-opacity="0.5"/>
<path d="M6.33289 336.572V337.851H1.86536V336.572H6.33289ZM12.0969 332.173V342.25H10.5716V333.699H10.5126L8.1017 335.273V333.817L10.6159 332.173H12.0969ZM18.3308 342.417C17.5534 342.414 16.8892 342.209 16.3381 341.802C15.787 341.396 15.3655 340.803 15.0736 340.026C14.7817 339.249 14.6357 338.312 14.6357 337.217C14.6357 336.124 14.7817 335.191 15.0736 334.417C15.3688 333.643 15.792 333.053 16.343 332.646C16.8974 332.239 17.56 332.036 18.3308 332.036C19.1016 332.036 19.7626 332.241 20.3136 332.651C20.8647 333.057 21.2862 333.648 21.5781 334.422C21.8733 335.193 22.0209 336.124 22.0209 337.217C22.0209 338.315 21.875 339.254 21.583 340.031C21.2911 340.805 20.8696 341.397 20.3185 341.807C19.7675 342.214 19.1049 342.417 18.3308 342.417ZM18.3308 341.104C19.013 341.104 19.5461 340.771 19.9298 340.105C20.3169 339.439 20.5104 338.476 20.5104 337.217C20.5104 336.38 20.4219 335.673 20.2447 335.096C20.0709 334.515 19.82 334.076 19.4919 333.777C19.1672 333.476 18.7802 333.325 18.3308 333.325C17.6518 333.325 17.1188 333.659 16.7317 334.328C16.3447 334.998 16.1495 335.96 16.1462 337.217C16.1462 338.056 16.2331 338.767 16.407 339.347C16.5841 339.924 16.835 340.362 17.1598 340.661C17.4845 340.956 17.8748 341.104 18.3308 341.104ZM27.2745 342.417C26.4971 342.414 25.8328 342.209 25.2818 341.802C24.7307 341.396 24.3092 340.803 24.0173 340.026C23.7254 339.249 23.5794 338.312 23.5794 337.217C23.5794 336.124 23.7254 335.191 24.0173 334.417C24.3125 333.643 24.7356 333.053 25.2867 332.646C25.841 332.239 26.5036 332.036 27.2745 332.036C28.0453 332.036 28.7062 332.241 29.2573 332.651C29.8084 333.057 30.2299 333.648 30.5218 334.422C30.817 335.193 30.9646 336.124 30.9646 337.217C30.9646 338.315 30.8186 339.254 30.5267 340.031C30.2348 340.805 29.8133 341.397 29.2622 341.807C28.7112 342.214 28.0486 342.417 27.2745 342.417ZM27.2745 341.104C27.9567 341.104 28.4898 340.771 28.8735 340.105C29.2606 339.439 29.4541 338.476 29.4541 337.217C29.4541 336.38 29.3655 335.673 29.1884 335.096C29.0146 334.515 28.7636 334.076 28.4356 333.777C28.1109 333.476 27.7238 333.325 27.2745 333.325C26.5955 333.325 26.0625 333.659 25.6754 334.328C25.2883 334.998 25.0932 335.96 25.0899 337.217C25.0899 338.056 25.1768 338.767 25.3507 339.347C25.5278 339.924 25.7787 340.362 26.1035 340.661C26.4282 340.956 26.8185 341.104 27.2745 341.104ZM36.2181 342.417C35.4408 342.414 34.7765 342.209 34.2255 341.802C33.6744 341.396 33.2529 340.803 32.961 340.026C32.669 339.249 32.5231 338.312 32.5231 337.217C32.5231 336.124 32.669 335.191 32.961 334.417C33.2562 333.643 33.6793 333.053 34.2304 332.646C34.7847 332.239 35.4473 332.036 36.2181 332.036C36.989 332.036 37.6499 332.241 38.201 332.651C38.752 333.057 39.1735 333.648 39.4655 334.422C39.7607 335.193 39.9083 336.124 39.9083 337.217C39.9083 338.315 39.7623 339.254 39.4704 340.031C39.1785 340.805 38.757 341.397 38.2059 341.807C37.6548 342.214 36.9923 342.417 36.2181 342.417ZM36.2181 341.104C36.9004 341.104 37.4334 340.771 37.8172 340.105C38.2043 339.439 38.3978 338.476 38.3978 337.217C38.3978 336.38 38.3092 335.673 38.1321 335.096C37.9583 334.515 37.7073 334.076 37.3793 333.777C37.0546 333.476 36.6675 333.325 36.2181 333.325C35.5392 333.325 35.0061 333.659 34.6191 334.328C34.232 334.998 34.0369 335.96 34.0336 337.217C34.0336 338.056 34.1205 338.767 34.2943 339.347C34.4715 339.924 34.7224 340.362 35.0471 340.661C35.3719 340.956 35.7622 341.104 36.2181 341.104Z" fill="#4E5D7C" fill-opacity="0.5"/>
<path d="M12.4916 119.015V129.092H10.9664V120.541H10.9073L8.49645 122.115V120.659L11.0107 119.015H12.4916ZM18.7255 129.259C17.9481 129.256 17.2839 129.051 16.7328 128.644C16.1818 128.238 15.7603 127.646 15.4684 126.868C15.1764 126.091 15.0305 125.154 15.0305 124.059C15.0305 122.966 15.1764 122.033 15.4684 121.259C15.7636 120.485 16.1867 119.895 16.7378 119.488C17.2921 119.081 17.9547 118.878 18.7255 118.878C19.4964 118.878 20.1573 119.083 20.7084 119.493C21.2594 119.899 21.6809 120.49 21.9729 121.264C22.2681 122.035 22.4157 122.966 22.4157 124.059C22.4157 125.158 22.2697 126.096 21.9778 126.873C21.6858 127.647 21.2643 128.239 20.7133 128.649C20.1622 129.056 19.4996 129.259 18.7255 129.259ZM18.7255 127.946C19.4078 127.946 19.9408 127.613 20.3246 126.947C20.7116 126.281 20.9052 125.318 20.9052 124.059C20.9052 123.222 20.8166 122.515 20.6395 121.938C20.4656 121.357 20.2147 120.918 19.8867 120.619C19.562 120.318 19.1749 120.167 18.7255 120.167C18.0465 120.167 17.5135 120.501 17.1265 121.171C16.7394 121.84 16.5442 122.802 16.541 124.059C16.541 124.898 16.6279 125.609 16.8017 126.189C16.9789 126.766 17.2298 127.204 17.5545 127.503C17.8793 127.798 18.2696 127.946 18.7255 127.946ZM27.6692 129.259C26.8918 129.256 26.2276 129.051 25.6765 128.644C25.1255 128.238 24.704 127.646 24.412 126.868C24.1201 126.091 23.9741 125.154 23.9741 124.059C23.9741 122.966 24.1201 122.033 24.412 121.259C24.7073 120.485 25.1304 119.895 25.6815 119.488C26.2358 119.081 26.8984 118.878 27.6692 118.878C28.44 118.878 29.101 119.083 29.652 119.493C30.2031 119.899 30.6246 120.49 30.9165 121.264C31.2117 122.035 31.3594 122.966 31.3594 124.059C31.3594 125.158 31.2134 126.096 30.9215 126.873C30.6295 127.647 30.208 128.239 29.657 128.649C29.1059 129.056 28.4433 129.259 27.6692 129.259ZM27.6692 127.946C28.3515 127.946 28.8845 127.613 29.2683 126.947C29.6553 126.281 29.8489 125.318 29.8489 124.059C29.8489 123.222 29.7603 122.515 29.5832 121.938C29.4093 121.357 29.1584 120.918 28.8304 120.619C28.5056 120.318 28.1186 120.167 27.6692 120.167C26.9902 120.167 26.4572 120.501 26.0701 121.171C25.6831 121.84 25.4879 122.802 25.4846 124.059C25.4846 124.898 25.5716 125.609 25.7454 126.189C25.9225 126.766 26.1735 127.204 26.4982 127.503C26.8229 127.798 27.2133 127.946 27.6692 127.946ZM36.6129 129.259C35.8355 129.256 35.1713 129.051 34.6202 128.644C34.0691 128.238 33.6477 127.646 33.3557 126.868C33.0638 126.091 32.9178 125.154 32.9178 124.059C32.9178 122.966 33.0638 122.033 33.3557 121.259C33.6509 120.485 34.0741 119.895 34.6251 119.488C35.1795 119.081 35.8421 118.878 36.6129 118.878C37.3837 118.878 38.0447 119.083 38.5957 119.493C39.1468 119.899 39.5683 120.49 39.8602 121.264C40.1554 122.035 40.303 122.966 40.303 124.059C40.303 125.158 40.1571 126.096 39.8651 126.873C39.5732 127.647 39.1517 128.239 38.6006 128.649C38.0496 129.056 37.387 129.259 36.6129 129.259ZM36.6129 127.946C37.2952 127.946 37.8282 127.613 38.212 126.947C38.599 126.281 38.7925 125.318 38.7925 124.059C38.7925 123.222 38.704 122.515 38.5268 121.938C38.353 121.357 38.1021 120.918 37.7741 120.619C37.4493 120.318 37.0623 120.167 36.6129 120.167C35.9339 120.167 35.4009 120.501 35.0138 121.171C34.6268 121.84 34.4316 122.802 34.4283 124.059C34.4283 124.898 34.5152 125.609 34.6891 126.189C34.8662 126.766 35.1172 127.204 35.4419 127.503C35.7666 127.798 36.157 127.946 36.6129 127.946Z" fill="#4E5D7C" fill-opacity="0.5"/>
<path d="M1.52024 69.5147V68.2453H7.89681V69.5147H5.43179V75.8027H3.9951V69.5147H1.52024ZM10.5599 70.8432H12.7543C13.6793 70.8432 14.3911 71.0728 14.8896 71.532C15.3882 71.9912 15.6375 72.5833 15.6375 73.3082C15.6375 73.7805 15.526 74.2053 15.3029 74.5825C15.0799 74.9597 14.7535 75.2582 14.3238 75.478C13.8941 75.6945 13.3709 75.8027 12.7543 75.8027H9.45282V68.2453H10.8944V74.5333H12.7543C13.1774 74.5333 13.5251 74.4234 13.7973 74.2037C14.0696 73.9806 14.2057 73.6969 14.2057 73.3525C14.2057 72.9884 14.0696 72.6915 13.7973 72.4619C13.5251 72.229 13.1774 72.1126 12.7543 72.1126H10.5599V70.8432ZM16.7101 75.8027V68.2453H18.1812V75.8027H16.7101ZM23.3388 75.9553C22.6074 75.9553 21.9776 75.7896 21.4495 75.4583C20.9247 75.1237 20.5212 74.6629 20.2391 74.0757C19.957 73.4886 19.816 72.8162 19.816 72.0585C19.816 71.2909 19.9603 70.6136 20.249 70.0264C20.5376 69.436 20.9443 68.9751 21.4692 68.6439C21.994 68.3126 22.6123 68.1469 23.3241 68.1469C23.8981 68.1469 24.4098 68.2535 24.8592 68.4667C25.3086 68.6767 25.671 68.9719 25.9465 69.3524C26.2253 69.7329 26.391 70.1773 26.4435 70.6857H25.0117C24.933 70.3315 24.7526 70.0264 24.4705 69.7706C24.1917 69.5147 23.8177 69.3868 23.3487 69.3868C22.9387 69.3868 22.5795 69.495 22.2712 69.7115C21.9661 69.9247 21.7283 70.2298 21.5577 70.6267C21.3872 71.0203 21.3019 71.4861 21.3019 72.024C21.3019 72.5751 21.3855 73.0507 21.5528 73.4509C21.7201 73.8511 21.9563 74.161 22.2613 74.3808C22.5696 74.6006 22.9321 74.7105 23.3487 74.7105C23.6275 74.7105 23.8801 74.6596 24.1064 74.5579C24.336 74.453 24.5279 74.3037 24.682 74.1102C24.8395 73.9167 24.9494 73.6838 25.0117 73.4115H26.4435C26.391 73.9003 26.2319 74.3365 25.9662 74.7203C25.7005 75.1041 25.3446 75.4058 24.8985 75.6256C24.4557 75.8454 23.9358 75.9553 23.3388 75.9553ZM29.9307 74.4251L29.8569 74.9614C29.8077 75.355 29.724 75.765 29.6059 76.1914C29.4911 76.6211 29.3714 77.0197 29.2468 77.387C29.1254 77.7544 29.0253 78.0463 28.9466 78.2628H27.9035C27.9462 78.0595 28.0052 77.7839 28.0807 77.4362C28.1561 77.0918 28.2299 76.7064 28.3021 76.28C28.3742 75.8536 28.4284 75.419 28.4644 74.9761L28.5136 74.4251H29.9307ZM40.2803 71.8567H35.0796V70.5676H40.2606C40.7067 70.5676 41.0757 70.4938 41.3676 70.3462C41.6596 70.1954 41.8761 69.9887 42.0171 69.7263C42.1582 69.4606 42.2287 69.1556 42.2287 68.8111C42.2287 68.47 42.1582 68.165 42.0171 67.896C41.8761 67.627 41.6612 67.4154 41.3726 67.2613C41.0839 67.1038 40.7198 67.0251 40.2803 67.0251H38.1351V75.8027H36.6197V65.7262H40.2803C41.0446 65.7262 41.6825 65.8639 42.1942 66.1395C42.7092 66.415 43.0946 66.7857 43.3505 67.2514C43.6096 67.7172 43.7392 68.2355 43.7392 68.8062C43.7392 69.3835 43.608 69.9034 43.3456 70.3659C43.0864 70.8251 42.6994 71.1892 42.1844 71.4582C41.6727 71.7239 41.038 71.8567 40.2803 71.8567ZM40.3541 72.703V73.997H35.0796V72.703H40.3541Z" fill="#4E5D7C" fill-opacity="0.5"/>
<path d="M400.49 381.684H398.876L402.502 371.607H404.259L407.885 381.684H406.271L403.422 373.438H403.344L400.49 381.684ZM400.761 377.738H405.996V379.017H400.761V377.738ZM409.222 381.684V374.126H415.387V381.684H413.945V375.396H410.654V381.684H409.222ZM417.354 384.518V374.126H418.791V375.352H418.914C418.999 375.194 419.122 375.012 419.283 374.805C419.443 374.599 419.666 374.418 419.952 374.264C420.237 374.107 420.614 374.028 421.083 374.028C421.694 374.028 422.238 374.182 422.717 374.491C423.196 374.799 423.571 375.243 423.844 375.824C424.119 376.404 424.257 377.103 424.257 377.92C424.257 378.737 424.121 379.437 423.849 380.021C423.576 380.601 423.202 381.049 422.727 381.364C422.251 381.676 421.708 381.831 421.098 381.831C420.639 381.831 420.263 381.754 419.971 381.6C419.683 381.446 419.456 381.266 419.292 381.059C419.128 380.852 419.002 380.669 418.914 380.508H418.825V384.518H417.354ZM418.796 377.905C418.796 378.437 418.873 378.902 419.027 379.302C419.181 379.703 419.404 380.016 419.696 380.242C419.988 380.465 420.345 380.577 420.769 380.577C421.208 380.577 421.575 380.46 421.871 380.227C422.166 379.991 422.389 379.671 422.54 379.268C422.694 378.865 422.771 378.41 422.771 377.905C422.771 377.407 422.696 376.959 422.545 376.562C422.397 376.165 422.174 375.852 421.876 375.622C421.58 375.393 421.211 375.278 420.769 375.278C420.342 375.278 419.981 375.388 419.686 375.607C419.394 375.827 419.173 376.134 419.022 376.527C418.871 376.921 418.796 377.38 418.796 377.905Z" fill="#4E5D7C" fill-opacity="0.5"/>
<path d="M484.553 232.395H527.184V309.132C527.184 313.841 523.367 317.658 518.658 317.658H493.079C488.37 317.658 484.553 313.841 484.553 309.132V232.395Z" fill="#E74C3C"/>
<path d="M197.631 372.768H199.446C200.214 372.768 200.894 372.937 201.488 373.275C202.085 373.61 202.553 374.08 202.89 374.687C203.232 375.291 203.402 375.993 203.402 376.793C203.402 377.587 203.232 378.284 202.89 378.884C202.553 379.485 202.085 379.954 201.488 380.291C200.894 380.626 200.214 380.793 199.446 380.793H197.631C196.863 380.793 196.181 380.628 195.584 380.296C194.987 379.962 194.518 379.496 194.177 378.899C193.839 378.302 193.67 377.605 193.67 376.808C193.67 376.004 193.841 375.299 194.182 374.692C194.523 374.085 194.99 373.613 195.584 373.275C196.181 372.937 196.863 372.768 197.631 372.768ZM197.631 374.082C197.106 374.082 196.658 374.192 196.288 374.412C195.917 374.628 195.633 374.94 195.436 375.347C195.24 375.753 195.141 376.24 195.141 376.808C195.141 377.362 195.24 377.84 195.436 378.24C195.636 378.637 195.922 378.943 196.292 379.16C196.663 379.373 197.109 379.48 197.631 379.48H199.451C199.973 379.48 200.417 379.373 200.785 379.16C201.155 378.943 201.437 378.635 201.631 378.235C201.828 377.831 201.926 377.351 201.926 376.793C201.926 376.232 201.828 375.75 201.631 375.347C201.437 374.94 201.155 374.628 200.785 374.412C200.417 374.192 199.973 374.082 199.451 374.082H197.631ZM199.289 371.43V382.097H197.798V371.43H199.289ZM208.432 381.836C207.687 381.836 207.046 381.677 206.508 381.359C205.973 381.038 205.56 380.587 205.268 380.006C204.979 379.422 204.835 378.738 204.835 377.954C204.835 377.18 204.979 376.498 205.268 375.908C205.56 375.317 205.967 374.856 206.488 374.525C207.013 374.194 207.627 374.028 208.328 374.028C208.755 374.028 209.168 374.099 209.568 374.24C209.969 374.381 210.328 374.602 210.646 374.904C210.964 375.206 211.215 375.598 211.399 376.08C211.582 376.559 211.674 377.141 211.674 377.826V378.348H205.667V377.246H210.233C210.233 376.859 210.154 376.516 209.996 376.218C209.839 375.916 209.618 375.678 209.332 375.504C209.05 375.33 208.719 375.243 208.338 375.243C207.925 375.243 207.564 375.345 207.256 375.548C206.951 375.748 206.715 376.011 206.547 376.336C206.383 376.657 206.301 377.006 206.301 377.384V378.245C206.301 378.75 206.39 379.179 206.567 379.534C206.747 379.888 206.998 380.159 207.32 380.346C207.641 380.529 208.017 380.621 208.447 380.621C208.725 380.621 208.98 380.582 209.209 380.503C209.439 380.421 209.637 380.3 209.805 380.139C209.972 379.978 210.1 379.78 210.188 379.544L211.581 379.794C211.469 380.204 211.269 380.564 210.98 380.872C210.695 381.177 210.336 381.415 209.903 381.585C209.473 381.753 208.983 381.836 208.432 381.836ZM213.306 381.684V374.126H216.441C217.293 374.126 217.969 374.308 218.468 374.673C218.966 375.033 219.216 375.524 219.216 376.144C219.216 376.587 219.075 376.937 218.792 377.197C218.51 377.456 218.136 377.63 217.671 377.718C218.009 377.758 218.319 377.859 218.601 378.023C218.883 378.184 219.109 378.4 219.28 378.673C219.453 378.945 219.54 379.27 219.54 379.647C219.54 380.047 219.437 380.401 219.23 380.71C219.024 381.015 218.724 381.254 218.33 381.428C217.94 381.599 217.469 381.684 216.918 381.684H213.306ZM214.689 380.454H216.918C217.282 380.454 217.567 380.367 217.774 380.193C217.981 380.019 218.084 379.783 218.084 379.485C218.084 379.134 217.981 378.858 217.774 378.658C217.567 378.455 217.282 378.353 216.918 378.353H214.689V380.454ZM214.689 377.275H216.455C216.731 377.275 216.967 377.236 217.164 377.157C217.364 377.079 217.517 376.967 217.621 376.823C217.73 376.675 217.784 376.501 217.784 376.301C217.784 376.009 217.664 375.781 217.425 375.617C217.185 375.453 216.857 375.371 216.441 375.371H214.689V377.275Z" fill="#4E5D7C" fill-opacity="0.5"/>
<path d="M185.066 178.039C185.066 173.33 188.883 169.513 193.592 169.513H219.171C223.88 169.513 227.697 173.33 227.697 178.039V231.328H185.066V178.039Z" fill="#27AE60"/>
<path d="M500.752 371.607H502.597L505.805 379.44H505.923L509.131 371.607H510.976V381.684H509.53V374.392H509.436L506.465 381.669H505.264L502.292 374.387H502.199V381.684H500.752V371.607ZM515.268 381.851C514.789 381.851 514.356 381.763 513.969 381.585C513.582 381.405 513.275 381.144 513.049 380.803C512.826 380.462 512.714 380.044 512.714 379.548C512.714 379.122 512.796 378.771 512.96 378.496C513.124 378.22 513.346 378.002 513.625 377.841C513.903 377.68 514.215 377.559 514.56 377.477C514.904 377.395 515.255 377.333 515.612 377.29C516.065 377.238 516.432 377.195 516.715 377.162C516.997 377.126 517.202 377.069 517.33 376.99C517.457 376.911 517.521 376.783 517.521 376.606V376.572C517.521 376.142 517.4 375.809 517.157 375.573C516.918 375.337 516.56 375.219 516.085 375.219C515.589 375.219 515.199 375.329 514.914 375.548C514.632 375.765 514.436 376.006 514.328 376.272L512.946 375.957C513.11 375.498 513.349 375.127 513.664 374.845C513.982 374.559 514.348 374.353 514.761 374.225C515.175 374.094 515.609 374.028 516.065 374.028C516.367 374.028 516.687 374.064 517.025 374.136C517.366 374.205 517.684 374.333 517.979 374.52C518.278 374.707 518.522 374.974 518.712 375.322C518.902 375.666 518.998 376.114 518.998 376.665V381.684H517.561V380.651H517.502C517.407 380.841 517.264 381.028 517.074 381.211C516.883 381.395 516.639 381.548 516.341 381.669C516.042 381.79 515.685 381.851 515.268 381.851ZM515.588 380.67C515.995 380.67 516.342 380.59 516.631 380.429C516.923 380.268 517.144 380.059 517.295 379.799C517.449 379.537 517.526 379.257 517.526 378.958V377.984C517.474 378.036 517.372 378.086 517.221 378.131C517.074 378.174 516.905 378.212 516.715 378.245C516.524 378.274 516.339 378.302 516.159 378.328C515.978 378.351 515.827 378.371 515.706 378.387C515.421 378.423 515.16 378.484 514.924 378.569C514.691 378.655 514.504 378.778 514.363 378.938C514.225 379.096 514.156 379.306 514.156 379.568C514.156 379.932 514.291 380.208 514.56 380.395C514.828 380.578 515.171 380.67 515.588 380.67ZM522.399 379.622L525.73 374.126H527.314V381.684H525.872V376.183L522.556 381.684H520.957V374.126H522.399V379.622ZM525.1 371.568H526.31C526.31 372.122 526.113 372.573 525.72 372.921C525.329 373.265 524.801 373.438 524.135 373.438C523.473 373.438 522.946 373.265 522.556 372.921C522.166 372.573 521.971 372.122 521.971 371.568H523.176C523.176 371.814 523.248 372.032 523.392 372.222C523.537 372.409 523.784 372.503 524.135 372.503C524.48 372.503 524.726 372.409 524.873 372.222C525.024 372.035 525.1 371.817 525.1 371.568Z" fill="#4E5D7C" fill-opacity="0.5"/>
<path d="M581.54 232.395H624.171V285.684C624.171 290.393 620.354 294.211 615.645 294.211H590.066C585.357 294.211 581.54 290.393 581.54 285.684V232.395Z" fill="#E74C3C"/>
<path d="M291.686 371.608H293.531L296.739 379.441H296.857L300.065 371.608H301.91V381.685H300.464V374.393H300.37L297.398 381.67H296.198L293.226 374.388H293.133V381.685H291.686V371.608ZM306.202 381.852C305.723 381.852 305.29 381.763 304.903 381.586C304.516 381.406 304.209 381.145 303.983 380.804C303.76 380.463 303.648 380.045 303.648 379.549C303.648 379.123 303.73 378.772 303.894 378.496C304.058 378.221 304.28 378.003 304.558 377.842C304.837 377.681 305.149 377.56 305.493 377.478C305.838 377.396 306.189 377.333 306.546 377.291C306.999 377.238 307.366 377.196 307.648 377.163C307.93 377.127 308.135 377.069 308.263 376.991C308.391 376.912 308.455 376.784 308.455 376.607V376.572C308.455 376.143 308.334 375.81 308.091 375.574C307.852 375.338 307.494 375.219 307.019 375.219C306.523 375.219 306.133 375.329 305.848 375.549C305.565 375.766 305.37 376.007 305.262 376.272L303.879 375.957C304.043 375.498 304.283 375.128 304.598 374.846C304.916 374.56 305.282 374.353 305.695 374.226C306.108 374.094 306.543 374.029 306.999 374.029C307.301 374.029 307.62 374.065 307.958 374.137C308.299 374.206 308.618 374.334 308.913 374.521C309.211 374.708 309.456 374.975 309.646 375.323C309.836 375.667 309.931 376.115 309.931 376.666V381.685H308.495V380.651H308.436C308.34 380.842 308.198 381.029 308.008 381.212C307.817 381.396 307.573 381.548 307.274 381.67C306.976 381.791 306.618 381.852 306.202 381.852ZM306.522 380.671C306.928 380.671 307.276 380.591 307.565 380.43C307.857 380.269 308.078 380.059 308.229 379.8C308.383 379.538 308.46 379.257 308.46 378.959V377.985C308.408 378.037 308.306 378.086 308.155 378.132C308.008 378.175 307.839 378.213 307.648 378.245C307.458 378.275 307.273 378.303 307.092 378.329C306.912 378.352 306.761 378.372 306.64 378.388C306.354 378.424 306.094 378.485 305.857 378.57C305.624 378.655 305.438 378.778 305.296 378.939C305.159 379.097 305.09 379.306 305.09 379.569C305.09 379.933 305.224 380.209 305.493 380.395C305.762 380.579 306.105 380.671 306.522 380.671ZM311.891 384.519V374.127H313.327V375.352H313.45C313.536 375.195 313.659 375.013 313.819 374.806C313.98 374.599 314.203 374.419 314.489 374.265C314.774 374.107 315.151 374.029 315.62 374.029C316.23 374.029 316.775 374.183 317.254 374.491C317.733 374.8 318.108 375.244 318.381 375.825C318.656 376.405 318.794 377.104 318.794 377.921C318.794 378.737 318.658 379.438 318.385 380.022C318.113 380.602 317.739 381.05 317.264 381.365C316.788 381.676 316.245 381.832 315.635 381.832C315.176 381.832 314.8 381.755 314.508 381.601C314.22 381.447 313.993 381.266 313.829 381.06C313.665 380.853 313.539 380.669 313.45 380.509H313.362V384.519H311.891ZM313.332 377.906C313.332 378.437 313.409 378.903 313.564 379.303C313.718 379.703 313.941 380.017 314.233 380.243C314.525 380.466 314.882 380.578 315.305 380.578C315.745 380.578 316.112 380.461 316.408 380.228C316.703 379.992 316.926 379.672 317.077 379.269C317.231 378.865 317.308 378.411 317.308 377.906C317.308 377.407 317.232 376.96 317.082 376.563C316.934 376.166 316.711 375.853 316.412 375.623C316.117 375.393 315.748 375.278 315.305 375.278C314.879 375.278 314.518 375.388 314.223 375.608C313.931 375.828 313.71 376.135 313.559 376.528C313.408 376.922 313.332 377.381 313.332 377.906Z" fill="#4E5D7C" fill-opacity="0.5"/>
<path d="M287.382 122.619C287.382 117.91 291.199 114.093 295.908 114.093H321.487C326.196 114.093 330.013 117.91 330.013 122.619V231.329H287.382V122.619Z" fill="#27AE60"/>
<path d="M598.634 371.608H600.139V379.008H600.233L605.36 371.608H606.767V381.685H605.246V374.294H605.153L600.036 381.685H598.634V371.608ZM612.67 377.325V378.605H608.64V377.325H612.67ZM609.836 374.127V381.685H608.365V374.127H609.836ZM614.972 381.837C614.27 381.837 613.657 381.673 613.132 381.345C612.607 381.017 612.201 380.561 611.912 379.977C611.623 379.39 611.479 378.709 611.479 377.935C611.479 377.155 611.623 376.472 611.912 375.889C612.201 375.301 612.607 374.846 613.132 374.521C613.657 374.193 614.27 374.029 614.972 374.029C615.678 374.029 616.291 374.193 616.813 374.521C617.337 374.846 617.744 375.301 618.033 375.889C618.325 376.472 618.471 377.155 618.471 377.935C618.471 378.709 618.325 379.39 618.033 379.977C617.744 380.561 617.337 381.017 616.813 381.345C616.291 381.673 615.678 381.837 614.972 381.837ZM614.972 380.578C615.448 380.578 615.837 380.458 616.139 380.218C616.444 379.976 616.668 379.654 616.813 379.254C616.957 378.854 617.029 378.414 617.029 377.935C617.029 377.453 616.957 377.012 616.813 376.612C616.668 376.208 616.444 375.885 616.139 375.643C615.837 375.4 615.448 375.278 614.972 375.278C614.5 375.278 614.111 375.4 613.806 375.643C613.501 375.885 613.277 376.208 613.132 376.612C612.988 377.012 612.916 377.453 612.916 377.935C612.916 378.414 612.988 378.854 613.132 379.254C613.277 379.654 613.501 379.976 613.806 380.218C614.111 380.458 614.5 380.578 614.972 380.578ZM625.327 377.271V378.545H621.233V377.271H625.327ZM621.647 374.127V381.685H620.205V374.127H621.647ZM626.355 374.127V381.685H624.919V374.127H626.355ZM629.43 376.725H631.625C632.55 376.725 633.262 376.955 633.76 377.414C634.259 377.873 634.508 378.465 634.508 379.19C634.508 379.662 634.397 380.087 634.173 380.464C633.95 380.842 633.624 381.14 633.194 381.36C632.765 381.576 632.242 381.685 631.625 381.685H628.323V374.127H629.765V380.415H631.625C632.048 380.415 632.396 380.305 632.668 380.086C632.94 379.862 633.076 379.579 633.076 379.234C633.076 378.87 632.94 378.573 632.668 378.344C632.396 378.111 632.048 377.994 631.625 377.994H629.43V376.725Z" fill="#4E5D7C" fill-opacity="0.5"/>
<path d="M389.698 232.395H432.329V341.105C432.329 345.814 428.512 349.632 423.803 349.632H398.224C393.515 349.632 389.698 345.814 389.698 341.105V232.395Z" fill="#E74C3C"/>
</svg>
