<svg width="33" height="37" viewBox="0 0 33 37" fill="none" xmlns="http://www.w3.org/2000/svg">
<path d="M31.5 24.9848V16.6625C31.5 9.51485 31.5 5.941 29.3033 3.7205C27.1066 1.5 23.5711 1.5 16.5 1.5C9.42893 1.5 5.8934 1.5 3.6967 3.7205C1.5 5.941 1.5 9.51484 1.5 16.6625V24.9848C1.5 30.1458 1.5 32.7263 2.72351 33.8538C3.30702 34.3916 4.04358 34.7294 4.82819 34.8192C6.47337 35.0075 8.39455 33.3082 12.2369 29.9097C13.9354 28.4075 14.7846 27.6564 15.7671 27.4584C16.251 27.361 16.749 27.361 17.2329 27.4584C18.2154 27.6564 19.0646 28.4075 20.7631 29.9097C24.6054 33.3082 26.5266 35.0075 28.1718 34.8192C28.9564 34.7294 29.693 34.3916 30.2765 33.8538C31.5 32.7263 31.5 30.1458 31.5 24.9848Z" stroke="#7B6EF6" stroke-width="3"/>
</svg>
